Coordinates
version=1
nRows=8
nColumns=46
inDegrees=yes

Units are S.I. units (second, meters, Newtons, ...)
Angles are in degrees.

endheader
time	pelvis_tilt	pelvis_list	pelvis_rotation	pelvis_tx	pelvis_ty	pelvis_tz	bb_angle	bb_tx	bb_ty	bb_tz	hip_flexion_r	hip_adduction_r	hip_rotation_r	knee_angle_r	knee_angle_r_beta	ankle_angle_r	subtalar_angle_r	mtp_angle_r	crank_angle_r	hip_flexion_l	hip_adduction_l	hip_rotation_l	knee_angle_l	knee_angle_l_beta	ankle_angle_l	subtalar_angle_l	mtp_angle_l	crank_angle_l	lumbar_extension	lumbar_bending	lumbar_rotation	arm_flex_r	arm_add_r	arm_rot_r	elbow_flex_r	pro_sup_r	wrist_flex_r	wrist_dev_r	arm_flex_l	arm_add_l	arm_rot_l	elbow_flex_l	pro_sup_l	wrist_flex_l	wrist_dev_l
      0.00000000	    -15.22699535	      0.50174282	      5.07990798	      0.18986608	      1.04006154	     -0.24521596	      0.00000000	      0.50000000	      0.00000000	      0.25000000	     42.46189973	     -8.77648394	     -2.62319523	     68.42798450	      1.19429363	     13.44390050	     -2.72541878	      0.00000000	      0.00000000	     85.77330838	     -3.80991766	     -0.12010224	     90.38291383	      1.57747943	     -4.32329777	     -6.04499092	      0.00000000	      0.00000000	    -57.71130616	     -0.61577381	     -3.07246839	     81.86138322	    -29.35418081	     36.87486698	     60.90167029	     49.46756330	      0.00000000	      0.00000000	     87.73904550	    -23.74922570	     41.07790998	     63.11938197	     44.12829052	      0.00000000	      0.00000000
      0.00500000	    -15.25587616	      0.46206632	      5.03985379	      0.18986291	      1.04000493	     -0.24513133	      0.00000000	      0.50000000	      0.00000000	      0.25000000	     42.50963551	     -8.70461090	     -2.60809575	     68.43117301	      1.19434928	     13.38402762	     -2.81196831	      0.00000000	      0.00000000	     85.81713350	     -3.88021011	     -0.09827942	     90.39672674	      1.57772051	     -4.28311642	     -5.97176751	      0.00000000	      0.00000000	    -57.67847016	     -0.59436303	     -3.13259464	     81.88288587	    -29.05428667	     36.88945087	     60.92327770	     48.23376717	      0.00000000	      0.00000000	     87.75679806	    -24.12602177	     41.40538144	     63.31011056	     44.27001349	      0.00000000	      0.00000000
      0.01000000	    -15.25476385	      0.46870041	      5.04162215	      0.18988712	      1.04007244	     -0.24515755	      0.00000000	      0.50000000	      0.00000000	      0.25000000	     42.49617996	     -8.70591568	     -2.59615683	     68.41226444	      1.19401926	     13.41446191	     -2.82984810	      0.00000000	      0.00000000	     85.79058636	     -3.87546822	     -0.10299730	     90.36430330	      1.57715462	     -4.24889069	     -5.95504880	      0.00000000	      0.00000000	    -57.67216512	     -0.59823698	     -3.04274173	     81.95907344	    -29.35663851	     37.31520460	     61.03632018	     48.02257243	      0.00000000	      0.00000000	     87.71715104	    -23.82693502	     41.11915422	     63.10008856	     44.22098442	      0.00000000	      0.00000000
      0.01500000	    -15.31598723	      0.38883004	      5.04494534	      0.18983518	      1.03979957	     -0.24520187	      0.00000000	      0.50000000	      0.00000000	      0.25000000	     42.58066644	     -8.64060517	     -2.61810489	     68.44222837	      1.19454223	     13.34095612	     -2.84576506	      0.00000000	      0.00000000	     85.89824274	     -3.87690695	     -0.03229592	     90.40247593	      1.57782086	     -4.23481416	     -6.00304862	      0.00000000	      0.00000000	    -57.59369940	     -0.51691722	     -3.11730809	     82.19969175	    -29.20926130	     37.68768308	     60.79667787	     47.79472308	      0.00000000	      0.00000000	     87.61319835	    -24.09712491	     40.96212245	     63.46007897	     44.33538165	      0.00000000	      0.00000000
      0.02000000	    -15.38539495	      0.36224890	      5.04617299	      0.18976712	      1.03985315	     -0.24530898	      0.00000000	      0.50000000	      0.00000000	      0.25000000	     42.66029854	     -8.65314614	     -2.65122439	     68.47155923	      1.19505415	     13.36948606	     -2.83107289	      0.00000000	      0.00000000	     85.97478045	     -3.86711672	     -0.00653182	     90.40543691	      1.57787254	     -4.21156709	     -6.08368556	      0.00000000	      0.00000000	    -57.50552960	     -0.53104044	     -3.01778495	     81.97725808	    -29.44307891	     37.45629055	     61.09506236	     47.69144766	      0.00000000	      0.00000000	     87.63302277	    -23.94447432	     41.08460932	     63.29760726	     44.38642390	      0.00000000	      0.00000000
      0.02500000	    -15.75791882	      0.32017788	      4.98336057	      0.18983473	      1.03920268	     -0.24515715	      0.00000000	      0.50000000	      0.00000000	      0.25000000	     43.10682201	     -8.56095983	     -2.55581308	     68.53261183	      1.19611972	     13.37137378	     -3.12615236	      0.00000000	      0.00000000	     86.39095657	     -3.92852725	      0.05421264	     90.44891433	      1.57863136	     -4.01236332	     -5.86553896	      0.00000000	      0.00000000	    -57.12485258	     -0.68053596	     -3.15215918	     80.66727930	    -28.94661119	     35.54103851	     61.91772697	     47.42543060	      0.00000000	      0.00000000	     87.01513196	    -23.56384923	     38.91266696	     64.17003894	     44.38729290	      0.00000000	      0.00000000
      0.03000000	    -15.40975455	      0.42260876	      5.07043818	      0.18978506	      1.03986680	     -0.24540591	      0.00000000	      0.50000000	      0.00000000	      0.25000000	     42.69674656	     -8.75502573	     -2.64188198	     68.52147040	      1.19592527	     13.44417299	     -2.67789819	      0.00000000	      0.00000000	     85.96787706	     -3.81012766	     -0.06953412	     90.37216804	      1.57729188	     -4.25434253	     -6.19538293	      0.00000000	      0.00000000	    -57.48799361	     -0.59851592	     -2.92106529	     81.50790793	    -29.63408774	     36.69982053	     61.68305732	     47.26672625	      0.00000000	      0.00000000	     87.77141535	    -23.75193601	     41.41305921	     63.07622458	     44.46299293	      0.00000000	      0.00000000
      0.03500000	    -15.37987388	      0.32376946	      5.01090687	      0.18981042	      1.03988400	     -0.24527713	      0.00000000	      0.50000000	      0.00000000	      0.25000000	     42.65670202	     -8.59656393	     -2.64067021	     68.47343806	      1.19508694	     13.36319517	     -2.83618115	      0.00000000	      0.00000000	     85.96991196	     -3.91528315	      0.03205964	     90.41096599	      1.57796904	     -4.15336427	     -6.03379192	      0.00000000	      0.00000000	    -57.50903968	     -0.53344188	     -2.81172448	     81.94599164	    -29.82038435	     37.65823784	     61.45949983	     47.33961286	      0.00000000	      0.00000000	     87.67553059	    -23.71856249	     41.15143280	     63.08710231	     44.36253868	      0.00000000	      0.00000000
